<svg id="logo" xmlns="http://www.w3.org/2000/svg" xmlns:xlink="http://www.w3.org/1999/xlink" width="220" height="56.465" viewBox="0 0 220 56.465">
  <defs>
    <clipPath id="clip-path">
      <rect id="Rectangle_27" data-name="Rectangle 27" width="220" height="56.465" fill="none"/>
    </clipPath>
  </defs>
  <g id="Group_34" data-name="Group 34" clip-path="url(#clip-path)">
    <path id="Path_7" data-name="Path 7" d="M220.836,57.3H16.638A14.394,14.394,0,0,1,2.245,42.908V2.246h204.2a14.393,14.393,0,0,1,14.393,14.393Z" transform="translate(-1.54 -1.541)" fill="#fff"/>
    <path id="Path_8" data-name="Path 8" d="M220.836,57.3H16.638A14.394,14.394,0,0,1,2.245,42.908V2.246h204.2a14.393,14.393,0,0,1,14.393,14.393Z" transform="translate(-1.54 -1.541)" fill="none" stroke="#1a1818" stroke-width="4.491"/>
    <path id="Path_9" data-name="Path 9" d="M477.718,57.3H376.962V2.246h86.363a14.393,14.393,0,0,1,14.393,14.393Z" transform="translate(-258.66 -1.541)" fill="#040505"/>
    <rect id="Rectangle_21" data-name="Rectangle 21" width="3.853" height="17.577" transform="translate(14.838 9.372)" fill="#1a1818"/>
    <rect id="Rectangle_22" data-name="Rectangle 22" width="3.853" height="14.447" transform="translate(21.678 9.372)" fill="#1a1818"/>
    <path id="Path_10" data-name="Path 10" d="M87.952,44.31V41.445h.987c.988,0,1.252-.434,1.252-1.685V32.728H88.674V29.863h5.369V40.482c0,2.817-.963,3.828-3.54,3.828Z" transform="translate(-60.35 -20.491)" fill="#1a1818"/>
    <path id="Path_11" data-name="Path 11" d="M122.713,34.823V39.35c0,3.9-1.517,4.96-4.551,4.96h-3.275V41.445H116.6c1.854,0,2.263-.433,2.263-2.384V35.112c0-1.95-.409-2.384-2.263-2.384h-1.709V29.863h3.275c3.034,0,4.551,1.059,4.551,4.96" transform="translate(-78.833 -20.491)" fill="#1a1818"/>
    <path id="Path_12" data-name="Path 12" d="M157.027,35.449V44.31h-3.853V34.8c0-1.565-.264-2.071-1.469-2.071h-.65V44.31h-5.321V41.348h1.661v-8.62h-1.083V29.863h5.923c3.54,0,4.792,1.228,4.792,5.586" transform="translate(-99.998 -20.491)" fill="#1a1818"/>
    <rect id="Rectangle_23" data-name="Rectangle 23" width="3.853" height="14.447" transform="translate(59.846 9.372)" fill="#1a1818"/>
    <path id="Path_13" data-name="Path 13" d="M236.715,29.864v5.9c0,3.828-1.951,4.84-4.6,5.129l1.108,6.5h-3.78l-2.986-17.528h3.8l1.421,8.355c1.012-.289,1.18-.89,1.18-2.408V29.864Z" transform="translate(-155.388 -20.492)" fill="#1a1818"/>
    <rect id="Rectangle_24" data-name="Rectangle 24" width="3.853" height="14.447" transform="translate(84.121 9.372)" fill="#1a1818"/>
    <path id="Path_14" data-name="Path 14" d="M298.257,29.864v8.524c0,3.9-1.469,5.008-4.695,5.827l-5.153,1.3-.795-2.746,1.686-.433-1.445-12.472h3.853L292.936,41.4c1.18-.312,1.468-.843,1.468-2.359V29.864Z" transform="translate(-197.352 -20.492)" fill="#1a1818"/>
    <rect id="Rectangle_25" data-name="Rectangle 25" width="3.853" height="8.5" transform="translate(103.699 9.372)" fill="#1a1818"/>
    <path id="Path_15" data-name="Path 15" d="M56.475,106.183v8.451H51.154V111.77h1.541v-6.694c0-1.613-.313-2.118-1.445-2.118h-.385l-1.156,11.677H45.977l1.228-11.582H45.9v-2.865h5.754c3.756,0,4.816,1.565,4.816,6" transform="translate(-31.499 -68.746)" fill="#1a1818"/>
    <path id="Path_16" data-name="Path 16" d="M88.568,99.352l.025-2.48,1.493-4.358H92.4l-.819,6.838Zm-3.924,0v-2.48l1.493-4.358h2.312l-.819,6.838Z" transform="translate(-58.08 -63.48)" fill="#1a1818"/>
    <path id="Path_17" data-name="Path 17" d="M123.593,100.188v8.524c0,3.9-1.469,5.008-4.695,5.827l-5.153,1.3-.795-2.746,1.686-.433-1.445-12.472h3.853l1.228,11.533c1.18-.312,1.468-.843,1.468-2.359v-9.174Z" transform="translate(-77.503 -68.746)" fill="#1a1818"/>
    <path id="Path_18" data-name="Path 18" d="M160.9,111.77v2.865h-8.981V111.77h3.9v-8.717h-3.9v-2.865h7.753V111.77Z" transform="translate(-104.244 -68.746)" fill="#1a1818"/>
    <rect id="Rectangle_26" data-name="Rectangle 26" width="3.853" height="8.5" transform="translate(62.531 31.442)" fill="#1a1818"/>
    <path id="Path_19" data-name="Path 19" d="M223.742,102.958H221l.482,8.909h.433c1.469,0,1.83-.722,1.83-2.889Zm3.757,5.393c0,4.84-1.686,6.285-5.779,6.285h-3.757l-.914-14.447H227.5Z" transform="translate(-148.932 -68.747)" fill="#1a1818"/>
    <path id="Path_20" data-name="Path 20" d="M263.449,103.053H262.1v11.582h-3.853V103.053h-3.612v-2.865h8.813Z" transform="translate(-174.723 -68.746)" fill="#1a1818"/>
    <path id="Path_21" data-name="Path 21" d="M285.551,114.635V111.77h.987c.988,0,1.252-.434,1.252-1.685v-7.031h-1.517v-2.865h5.369v10.619c0,2.817-.963,3.828-3.54,3.828Z" transform="translate(-195.936 -68.746)" fill="#1a1818"/>
    <path id="Path_22" data-name="Path 22" d="M315.2,114.635H311.35v-9H315.2Zm5.875,0h-3.853V103.053h-5.9v-2.865h9.752Z" transform="translate(-213.622 -68.746)" fill="#1a1818"/>
    <path id="Path_23" data-name="Path 23" d="M589.534,49.592h8.48c-.23,5.461,1.027,7.9,3.438,7.9,1.95,0,2.98-1.187,2.98-3.5-.058-2.731-1.031-4.331-4.47-6.827-7.388-5.343-9.91-8.605-9.91-14.9,0-5.759,4.068-10.213,11.746-10.213,8.994,0,11.972,5.526,11.748,13.6h-8.253c-.175-4.454-.919-6.476-3.266-6.476-1.832,0-2.81,1.188-2.81,3.325,0,2.264,1.146,3.863,4.185,6.062,7.909,5.519,10.144,8.427,10.144,15.139,0,7.06-4.248,10.982-12.266,10.982-7.1,0-12.373-3.62-11.745-15.08" transform="translate(-404.486 -15.126)" fill="#fff"/>
    <path id="Path_24" data-name="Path 24" d="M426.16,51.983c0-4.1-1.376-5.821-5.041-5.821h-1.084v11.7h1.2c3.5,0,4.924-1.781,4.924-5.876m-5.553-21.551h-.572v9.5h.63c3.382,0,4.466-1.3,4.466-4.687,0-3.442-1.258-4.81-4.524-4.81m14.206,22.5c0,8.011-4.065,11.989-12.318,11.989H410.921V23.366h10.371c8.025,0,12.088,3.742,12.088,10.571,0,4.63-1.376,7.716-3.838,9.024,3.034,1.243,5.27,4.394,5.27,9.973" transform="translate(-281.961 -16.033)" fill="#fff"/>
    <path id="Path_25" data-name="Path 25" d="M529.281,57.622v7.3h-19.6V23.365h19.364v7.3h-9.968V39.63h8.361V46.7h-8.361V57.622Z" transform="translate(-349.73 -16.032)" fill="#fff"/>
  </g>
</svg>
