<svg id="Group_30" data-name="Group 30" xmlns="http://www.w3.org/2000/svg" xmlns:xlink="http://www.w3.org/1999/xlink" width="28.101" height="27.925" viewBox="0 0 28.101 27.925">
  <defs>
    <clipPath id="clip-path">
      <rect id="Rectangle_17" data-name="Rectangle 17" width="28.101" height="27.925" fill="#c3c1c1"/>
    </clipPath>
  </defs>
  <g id="Group_29" data-name="Group 29" clip-path="url(#clip-path)">
    <path id="Path_5" data-name="Path 5" d="M13.962,1.406a12.456,12.456,0,0,1,6.4,1.813,13.846,13.846,0,0,1,3.336,2.809l-3.3-.109a.7.7,0,0,0-.046,1.4l4.567.151a.7.7,0,0,0,.917-.918l-.15-4.566a.7.7,0,0,0-1.405.031c0,.005,0,.01,0,.015l.087,2.634a15.324,15.324,0,0,0-3.282-2.656A13.864,13.864,0,0,0,13.962,0,13.587,13.587,0,0,0,3.75,4.568,14.5,14.5,0,0,0,0,13.963a.7.7,0,1,0,1.405,0A13.061,13.061,0,0,1,4.794,5.508a12.2,12.2,0,0,1,9.168-4.1" transform="translate(0 -0.001)" fill="#c3c1c1"/>
    <path id="Path_6" data-name="Path 6" d="M64.594,235.783a.7.7,0,0,0-.7.7A13.063,13.063,0,0,1,60.5,244.94a12.2,12.2,0,0,1-9.168,4.1,12.455,12.455,0,0,1-6.4-1.812,13.856,13.856,0,0,1-3.336-2.809l3.3.109a.7.7,0,0,0,.046-1.4l-4.567-.151a.7.7,0,0,0-.917.918l.15,4.566a.7.7,0,0,0,1.405-.031s0-.01,0-.015l-.087-2.634a15.33,15.33,0,0,0,3.282,2.657,13.861,13.861,0,0,0,7.119,2.013,13.587,13.587,0,0,0,10.212-4.567,14.5,14.5,0,0,0,3.75-9.4.7.7,0,0,0-.7-.7" transform="translate(-37.196 -222.523)" fill="#c3c1c1"/>
  </g>
</svg>
